<svg width="300" height="300" viewBox="0 0 300 300" xmlns="http://www.w3.org/2000/svg">
  <circle cx="150" cy="150" r="140" fill="none" stroke="#003399" stroke-width="1.5" opacity="0.3"/>
  
  <path d="M150 50 C210 50 250 90 250 150 C250 210 210 250 150 250 C90 250 50 210 50 150 C50 90 90 50 150 50Z" fill="none" stroke="#003399" stroke-width="8"/>

  <g fill="#003399">
    <path d="M150 75 L153 81 H159 L154 85 L156 91 L150 87 L144 91 L146 85 L141 81 H147 Z" />
    <path d="M110 95 L113 101 H119 L114 105 L116 111 L110 107 L104 111 L106 105 L101 101 H107 Z" />
    <path d="M190 95 L193 101 H199 L194 105 L196 111 L190 107 L184 111 L186 105 L181 101 H187 Z" />
  </g>

  <text x="150" y="180" text-anchor="middle" font-family="Inter, -apple-system, sans-serif" font-weight="900" font-size="52" fill="#003399" style="letter-spacing: -2px;">EU</text>
  
  <rect x="110" y="195" width="80" height="4" fill="#003399" rx="2"/>

  <text x="150" y="225" text-anchor="middle" font-family="Inter, -apple-system, sans-serif" font-weight="800" font-size="14" fill="#1A1A1A" style="letter-spacing: 4px; text-transform: uppercase;">
    Export Certified
  </text>
  
  <text x="150" y="242" text-anchor="middle" font-family="Inter, -apple-system, sans-serif" font-weight="500" font-size="10" fill="#003399" style="letter-spacing: 2px;">
    EUROPEAN STANDARDS COMPLIANCE
  </text>
</svg>