<?xml version="1.0" encoding="UTF-8"?>
<svg xmlns="http://www.w3.org/2000/svg" xmlns:xlink="http://www.w3.org/1999/xlink" width="225.5pt" height="104.5pt" viewBox="0 0 225.5 104.5" version="1.1">
<defs>
<clipPath id="clip1">
  <path d="M 0 26 L 225.5 26 L 225.5 61 L 0 61 Z M 0 26 "/>
</clipPath>
<clipPath id="clip2">
  <path d="M 77 95 L 149 95 L 149 104.5 L 77 104.5 Z M 77 95 "/>
</clipPath>
</defs>
<g id="surface1">
<path style=" stroke:none;fill-rule:evenodd;fill:rgb(0%,41.575623%,65.429688%);fill-opacity:1;" d="M 142.316406 47.578125 L 166.972656 47.578125 C 173.773438 47.578125 179.332031 53.402344 179.332031 60.511719 C 179.332031 66.78125 175.011719 72.046875 169.328125 73.207031 L 180.945313 90.226563 L 168.078125 90.226563 L 156.625 73.445313 L 145.003906 73.445313 L 145.003906 90.226563 L 134.660156 90.226563 L 134.660156 47.578125 Z M 145.003906 67.082031 L 160.863281 67.082031 C 164.148438 67.082031 166.835938 64.527344 166.835938 61.089844 C 166.835938 57.652344 164.148438 54.84375 160.863281 54.84375 L 145.003906 54.84375 Z M 86.273438 47.578125 L 117.792969 47.578125 C 124.660156 47.578125 130.277344 52.769531 130.277344 59.113281 C 130.277344 63.226563 127.917969 66.855469 124.394531 68.898438 C 127.917969 70.945313 130.277344 74.574219 130.277344 78.683594 C 130.277344 85.027344 124.660156 90.21875 117.792969 90.21875 L 86.273438 90.21875 Z M 96.71875 71.457031 L 96.71875 82.609375 L 111.617188 82.609375 C 114.933594 82.609375 117.648438 80.097656 117.648438 77.03125 C 117.648438 73.96875 114.933594 71.457031 111.617188 71.457031 Z M 96.71875 55.1875 L 96.71875 66.339844 L 111.617188 66.339844 C 114.933594 66.339844 117.648438 63.832031 117.648438 60.765625 C 117.648438 57.699219 114.933594 55.1875 111.617188 55.1875 Z M 80.351563 47.523438 L 60.363281 47.523438 C 51.941406 47.523438 45.050781 54.402344 45.050781 62.824219 L 45.050781 90.222656 L 54.433594 90.222656 L 54.433594 72.660156 L 80.351563 72.660156 L 80.351563 65.082031 L 54.433594 65.082031 L 54.433594 64.972656 C 54.433594 59.539063 58.878906 55.101563 64.308594 55.101563 L 80.351563 55.101563 Z M 80.351563 47.523438 "/>
<g clip-path="url(#clip1)" clip-rule="nonzero">
<path style=" stroke:none;fill-rule:evenodd;fill:rgb(87.5%,85.9375%,0%);fill-opacity:1;" d="M 112.800781 36.566406 C 55.808594 37.761719 31.039063 44.355469 0.078125 60.441406 C 18.695313 42.082031 55.808594 28.015625 112.800781 26.820313 C 169.792969 28.015625 206.90625 42.082031 225.523438 60.441406 C 194.5625 44.355469 169.792969 37.761719 112.800781 36.566406 Z M 112.800781 36.566406 "/>
</g>
<path style=" stroke:none;fill-rule:evenodd;fill:rgb(99.609375%,76.171875%,0%);fill-opacity:1;" d="M 112.800781 -0.0898438 L 115.601563 26.667969 L 125.183594 18.984375 L 117.542969 28.511719 L 143.5 31.367188 L 117.519531 34.222656 L 125.488281 44.054688 L 115.605469 36.042969 L 112.800781 62.824219 L 110 36.066406 L 100.417969 43.746094 L 108.058594 34.21875 L 82.101563 31.367188 L 108.082031 28.511719 L 100.113281 18.679688 L 109.996094 26.691406 Z M 112.800781 -0.0898438 "/>
<g clip-path="url(#clip2)" clip-rule="nonzero">
<path style=" stroke:none;fill-rule:evenodd;fill:rgb(0%,41.575623%,65.429688%);fill-opacity:1;" d="M 112.652344 95.132813 L 119.097656 95.132813 L 119.097656 96.957031 L 112.882813 96.957031 C 112.4375 96.957031 112.070313 97.324219 112.070313 97.769531 C 112.070313 98.214844 112.4375 98.582031 112.882813 98.582031 L 115.984375 98.582031 L 115.984375 98.59375 L 116.15625 98.59375 C 117.765625 98.59375 119.101563 99.917969 119.101563 101.539063 C 119.101563 103.15625 117.765625 104.480469 116.15625 104.480469 L 113.898438 104.480469 L 113.898438 104.488281 L 110.015625 104.488281 L 110.015625 102.664063 L 111.15625 102.664063 L 111.15625 102.660156 L 115.949219 102.660156 C 116.5625 102.660156 117.070313 102.15625 117.070313 101.539063 C 117.070313 100.917969 116.5625 100.414063 115.949219 100.414063 L 114.648438 100.414063 L 114.648438 100.40625 L 112.652344 100.40625 C 111.195313 100.40625 110.015625 99.214844 110.015625 97.769531 C 110.015625 96.320313 111.195313 95.128906 112.652344 95.128906 Z M 123.664063 95.199219 L 129.140625 95.199219 L 129.140625 97.121094 L 125.585938 97.121094 L 125.585938 104.488281 L 123.664063 104.488281 L 123.664063 97.121094 L 120.105469 97.121094 L 120.105469 95.199219 Z M 139.117188 95.199219 L 141.945313 95.199219 L 146.589844 101.929688 L 146.589844 95.199219 L 148.515625 95.199219 L 148.515625 104.488281 L 145.683594 104.488281 L 141.039063 97.757813 L 141.039063 104.488281 L 139.117188 104.488281 Z M 135.234375 100.539063 L 133.859375 96.570313 L 132.480469 100.539063 Z M 133.382813 95.199219 L 135.304688 95.199219 L 138.527344 104.488281 L 136.605469 104.488281 L 135.902344 102.460938 L 131.8125 102.460938 L 131.109375 104.488281 L 129.1875 104.488281 L 132.414063 95.199219 Z M 97.121094 95.199219 L 99.042969 95.199219 L 99.042969 98.925781 L 102.289063 95.199219 L 104.949219 95.199219 L 100.898438 99.84375 L 104.949219 104.488281 L 102.289063 104.488281 L 99.042969 100.765625 L 99.042969 104.488281 L 97.121094 104.488281 Z M 92.789063 100.539063 L 91.410156 96.570313 L 90.035156 100.539063 Z M 90.933594 95.199219 L 92.855469 95.199219 L 96.082031 104.488281 L 94.160156 104.488281 L 93.457031 102.460938 L 89.367188 102.460938 L 88.660156 104.488281 L 86.738281 104.488281 L 89.964844 95.199219 Z M 106.453125 95.199219 L 108.375 95.199219 L 108.375 104.488281 L 106.453125 104.488281 Z M 83.59375 95.136719 L 78.304688 95.136719 L 78.304688 95.199219 L 77.121094 95.199219 L 77.121094 104.488281 L 79.042969 104.488281 L 79.042969 101.414063 L 83.59375 101.414063 C 85.320313 101.414063 86.730469 100 86.730469 98.273438 C 86.730469 96.546875 85.320313 95.136719 83.59375 95.136719 Z M 79.042969 96.9375 L 83.59375 96.9375 C 84.328125 96.9375 84.933594 97.539063 84.933594 98.273438 C 84.933594 99.011719 84.328125 99.613281 83.59375 99.613281 L 79.042969 99.613281 Z M 79.042969 96.9375 "/>
</g>
</g>
</svg>
