<svg xmlns="http://www.w3.org/2000/svg" viewBox="0 0 512 512" width="512" height="512">
  <path fill="#003399" d="M0 0h512v512H0z"/>
  <g fill="#ffcc00" transform="translate(256 256) scale(15)">
    <path id="s" d="M0-6l1.3 4.2h4.4l-3.5 2.6L3.5 5 0 2.4-3.5 5l1.3-4.2-3.5-2.6h4.4z"/>
    <path transform="rotate(30) translate(0 -15)" d="M0-1.8l0.4 1.3h1.3l-1 0.8L1 1.5 0 0.7l-1 0.8 0.4-1.3-1-0.8h1.3z"/>
    <path transform="rotate(60) translate(0 -15)" d="M0-1.8l0.4 1.3h1.3l-1 0.8L1 1.5 0 0.7l-1 0.8 0.4-1.3-1-0.8h1.3z"/>
    <path transform="rotate(90) translate(0 -15)" d="M0-1.8l0.4 1.3h1.3l-1 0.8L1 1.5 0 0.7l-1 0.8 0.4-1.3-1-0.8h1.3z"/>
    <path transform="rotate(120) translate(0 -15)" d="M0-1.8l0.4 1.3h1.3l-1 0.8L1 1.5 0 0.7l-1 0.8 0.4-1.3-1-0.8h1.3z"/>
    <path transform="rotate(150) translate(0 -15)" d="M0-1.8l0.4 1.3h1.3l-1 0.8L1 1.5 0 0.7l-1 0.8 0.4-1.3-1-0.8h1.3z"/>
    <path transform="rotate(180) translate(0 -15)" d="M0-1.8l0.4 1.3h1.3l-1 0.8L1 1.5 0 0.7l-1 0.8 0.4-1.3-1-0.8h1.3z"/>
    <path transform="rotate(210) translate(0 -15)" d="M0-1.8l0.4 1.3h1.3l-1 0.8L1 1.5 0 0.7l-1 0.8 0.4-1.3-1-0.8h1.3z"/>
    <path transform="rotate(240) translate(0 -15)" d="M0-1.8l0.4 1.3h1.3l-1 0.8L1 1.5 0 0.7l-1 0.8 0.4-1.3-1-0.8h1.3z"/>
    <path transform="rotate(270) translate(0 -15)" d="M0-1.8l0.4 1.3h1.3l-1 0.8L1 1.5 0 0.7l-1 0.8 0.4-1.3-1-0.8h1.3z"/>
    <path transform="rotate(300) translate(0 -15)" d="M0-1.8l0.4 1.3h1.3l-1 0.8L1 1.5 0 0.7l-1 0.8 0.4-1.3-1-0.8h1.3z"/>
    <path transform="rotate(330) translate(0 -15)" d="M0-1.8l0.4 1.3h1.3l-1 0.8L1 1.5 0 0.7l-1 0.8 0.4-1.3-1-0.8h1.3z"/>
    <path transform="rotate(0) translate(0 -15)" d="M0-1.8l0.4 1.3h1.3l-1 0.8L1 1.5 0 0.7l-1 0.8 0.4-1.3-1-0.8h1.3z"/>
  </g>
</svg>
