<svg viewBox="0 0 512 512" fill="none" xmlns="http://www.w3.org/2000/svg">
  {/* High-Visibility Favicon with Bold Brand Colors */}
  <path 
    d="M60 250c0 0-10 80 50 120s280 60 340 0s10-120 10-120" 
    stroke="#0b5d1e" 
    strokeWidth="45" 
    strokeLinecap="round" 
    strokeLinejoin="round" 
  />
  {/* Main Sausage Body filled for visibility on all backgrounds */}
  <path 
    d="M30 200c0 0-15-20 10-40s410 40 440 80s-10 80-60 60" 
    fill="#0b5d1e"
    stroke="#0b5d1e" 
    strokeWidth="45" 
    strokeLinecap="round" 
    strokeLinejoin="round" 
  />
  <path 
    d="M80 180c0 0 10-60 80-100s240-20 300 40s10 110 10 110" 
    stroke="#0b5d1e" 
    strokeWidth="45" 
    strokeLinecap="round" 
    strokeLinejoin="round" 
  />
  {/* Highlight line in contrasting white */}
  <path 
    d="M100 190c20-10 40 10 60 0s40-10 60 0s40 10 60 0s40-10 60 0" 
    stroke="white" 
    strokeWidth="20" 
    strokeLinecap="round" 
    strokeLinejoin="round" 
  />
</svg>
